<svg width="199" height="76" viewBox="0 0 199 76" fill="none" xmlns="http://www.w3.org/2000/svg">
<g filter="url(#filter0_i_1_2)">
<path d="M0.474432 61.9261V48.2188L30.2685 1.27273H42.4489V19.8807H35.3821L17.946 47.5085V48.0767H61.0923V61.9261H0.474432ZM35.5952 74V57.7358L35.9503 51.7344V1.27273H52.392V74H35.5952ZM100.386 75.7756C94.041 75.7756 88.5722 74.2723 83.9794 71.2656C79.3866 68.2353 75.8473 63.8911 73.3615 58.233C70.8757 52.5511 69.6446 45.7211 69.6683 37.7429C69.692 29.7647 70.9349 22.9938 73.397 17.4304C75.8828 11.8433 79.4103 7.59375 83.9794 4.68182C88.5722 1.74621 94.041 0.278406 100.386 0.278406C106.73 0.278406 112.199 1.74621 116.792 4.68182C121.408 7.59375 124.96 11.8433 127.445 17.4304C129.931 23.0175 131.162 29.7884 131.138 37.7429C131.138 45.7448 129.896 52.5866 127.41 58.2685C124.924 63.9503 121.385 68.2945 116.792 71.3011C112.223 74.2841 106.754 75.7756 100.386 75.7756ZM100.386 61.3935C104.174 61.3935 107.239 59.464 109.583 55.6051C111.927 51.7225 113.087 45.7685 113.063 37.7429C113.063 32.4872 112.531 28.1548 111.465 24.7457C110.4 21.313 108.92 18.7562 107.026 17.0753C105.132 15.3944 102.919 14.554 100.386 14.554C96.6214 14.554 93.5793 16.4598 91.2592 20.2713C88.9392 24.0592 87.7673 29.883 87.7436 37.7429C87.7199 43.0696 88.2289 47.4848 89.2706 50.9886C90.3359 54.4924 91.8274 57.1084 93.745 58.8366C95.6626 60.5412 97.8762 61.3935 100.386 61.3935ZM168.869 74.9943C163.33 74.9943 158.417 74.0473 154.132 72.1534C149.871 70.2358 146.509 67.5961 144.047 64.2344C141.585 60.8726 140.33 57.0019 140.283 52.6222H157.967C158.038 54.2083 158.547 55.617 159.494 56.848C160.441 58.0554 161.732 59.0024 163.365 59.6889C164.999 60.3755 166.857 60.7188 168.94 60.7188C171.024 60.7188 172.858 60.3518 174.445 59.6179C176.054 58.8603 177.309 57.8305 178.209 56.5284C179.108 55.2027 179.546 53.6875 179.523 51.983C179.546 50.2784 179.061 48.7633 178.067 47.4375C177.072 46.1117 175.664 45.0819 173.841 44.348C172.042 43.6141 169.911 43.2472 167.449 43.2472H160.382V30.7472H167.449C169.603 30.7472 171.497 30.392 173.131 29.6818C174.788 28.9716 176.078 27.9773 177.001 26.6989C177.925 25.3968 178.375 23.9053 178.351 22.2244C178.375 20.5909 177.984 19.1586 177.179 17.9276C176.398 16.6728 175.297 15.7022 173.876 15.0156C172.48 14.3291 170.858 13.9858 169.011 13.9858C167.07 13.9858 165.306 14.3291 163.72 15.0156C162.158 15.7022 160.915 16.6728 159.991 17.9276C159.068 19.1823 158.583 20.6383 158.536 22.2955H141.739C141.786 17.9631 142.993 14.1515 145.361 10.8608C147.728 7.5464 150.948 4.95407 155.02 3.08381C159.116 1.21354 163.779 0.278406 169.011 0.278406C174.22 0.278406 178.801 1.18986 182.754 3.01278C186.708 4.8357 189.786 7.32149 191.987 10.4702C194.189 13.5952 195.29 17.1345 195.29 21.0881C195.313 25.1837 193.976 28.5573 191.277 31.2088C188.602 33.8603 185.157 35.4938 180.943 36.1094V36.6776C186.578 37.3404 190.827 39.1634 193.692 42.1463C196.58 45.1293 198.012 48.858 197.989 53.3324C197.989 57.5464 196.746 61.2869 194.26 64.554C191.798 67.7973 188.365 70.3542 183.962 72.2244C179.582 74.071 174.551 74.9943 168.869 74.9943Z" fill="#335582"/>
</g>
<defs>
<filter id="filter0_i_1_2" x="0.474426" y="0.278412" width="197.55" height="79.4972" filterUnits="userSpaceOnUse" color-interpolation-filters="sRGB">
<feFlood flood-opacity="0" result="BackgroundImageFix"/>
<feBlend mode="normal" in="SourceGraphic" in2="BackgroundImageFix" result="shape"/>
<feColorMatrix in="SourceAlpha" type="matrix" values="0 0 0 0 0 0 0 0 0 0 0 0 0 0 0 0 0 0 127 0" result="hardAlpha"/>
<feOffset dy="4"/>
<feGaussianBlur stdDeviation="2"/>
<feComposite in2="hardAlpha" operator="arithmetic" k2="-1" k3="1"/>
<feColorMatrix type="matrix" values="0 0 0 0 0 0 0 0 0 0 0 0 0 0 0 0 0 0 0.25 0"/>
<feBlend mode="normal" in2="shape" result="effect1_innerShadow_1_2"/>
</filter>
</defs>
</svg>
