<svg width="201" height="76" viewBox="0 0 201 76" fill="none" xmlns="http://www.w3.org/2000/svg">
<g filter="url(#filter0_i_1_2)">
<path d="M0.474432 61.9261V48.2188L30.2685 1.27273H42.4489V19.8807H35.3821L17.946 47.5085V48.0767H61.0923V61.9261H0.474432ZM35.5952 74V57.7358L35.9503 51.7344V1.27273H52.392V74H35.5952ZM100.386 75.7756C94.041 75.7756 88.5722 74.2723 83.9794 71.2656C79.3866 68.2353 75.8473 63.8911 73.3615 58.233C70.8757 52.5511 69.6446 45.7211 69.6683 37.7429C69.692 29.7647 70.9349 22.9938 73.397 17.4304C75.8828 11.8433 79.4103 7.59375 83.9794 4.68182C88.5722 1.74621 94.041 0.278406 100.386 0.278406C106.73 0.278406 112.199 1.74621 116.792 4.68182C121.408 7.59375 124.96 11.8433 127.445 17.4304C129.931 23.0175 131.162 29.7884 131.138 37.7429C131.138 45.7448 129.896 52.5866 127.41 58.2685C124.924 63.9503 121.385 68.2945 116.792 71.3011C112.223 74.2841 106.754 75.7756 100.386 75.7756ZM100.386 61.3935C104.174 61.3935 107.239 59.464 109.583 55.6051C111.927 51.7225 113.087 45.7685 113.063 37.7429C113.063 32.4872 112.531 28.1548 111.465 24.7457C110.4 21.313 108.92 18.7562 107.026 17.0753C105.132 15.3944 102.919 14.554 100.386 14.554C96.6214 14.554 93.5793 16.4598 91.2592 20.2713C88.9392 24.0592 87.7673 29.883 87.7436 37.7429C87.7199 43.0696 88.2289 47.4848 89.2706 50.9886C90.3359 54.4924 91.8274 57.1084 93.745 58.8366C95.6626 60.5412 97.8762 61.3935 100.386 61.3935ZM140.318 61.9261V48.2188L170.112 1.27273H182.293V19.8807H175.226L157.79 47.5085V48.0767H200.936V61.9261H140.318ZM175.439 74V57.7358L175.794 51.7344V1.27273H192.236V74H175.439Z" fill="#335582"/>
</g>
<defs>
<filter id="filter0_i_1_2" x="0.474426" y="0.278412" width="200.462" height="79.4972" filterUnits="userSpaceOnUse" color-interpolation-filters="sRGB">
<feFlood flood-opacity="0" result="BackgroundImageFix"/>
<feBlend mode="normal" in="SourceGraphic" in2="BackgroundImageFix" result="shape"/>
<feColorMatrix in="SourceAlpha" type="matrix" values="0 0 0 0 0 0 0 0 0 0 0 0 0 0 0 0 0 0 127 0" result="hardAlpha"/>
<feOffset dy="4"/>
<feGaussianBlur stdDeviation="2"/>
<feComposite in2="hardAlpha" operator="arithmetic" k2="-1" k3="1"/>
<feColorMatrix type="matrix" values="0 0 0 0 0 0 0 0 0 0 0 0 0 0 0 0 0 0 0.25 0"/>
<feBlend mode="normal" in2="shape" result="effect1_innerShadow_1_2"/>
</filter>
</defs>
</svg>
