<svg width="198" height="76" viewBox="0 0 198 76" fill="none" xmlns="http://www.w3.org/2000/svg">
<g filter="url(#filter0_i_1_2)">
<path d="M28.2031 74.9943C22.9001 74.9943 18.1889 74.0355 14.0696 72.1179C9.95028 70.2003 6.69508 67.5606 4.30398 64.1989C1.93655 60.8371 0.705493 56.9782 0.610796 52.6222H17.6562C17.7983 55.2973 18.8873 57.4517 20.9233 59.0852C22.9593 60.6951 25.3859 61.5 28.2031 61.5C30.4048 61.5 32.358 61.0147 34.0625 60.044C35.767 59.0734 37.1046 57.7121 38.0753 55.9602C39.0459 54.1847 39.5194 52.1487 39.4957 49.8523C39.5194 47.5085 39.0341 45.4607 38.0398 43.7088C37.0691 41.9569 35.7197 40.5956 33.9915 39.625C32.2869 38.6307 30.322 38.1335 28.0966 38.1335C25.9896 38.1098 23.9891 38.5715 22.0952 39.5185C20.2249 40.4654 18.8045 41.7557 17.8338 43.3892L2.31534 40.4773L5.47585 1.27273H52.1378V15.4418H19.929L18.2599 32.5938H18.6861C19.8935 30.5814 21.8348 28.9242 24.5099 27.6222C27.2088 26.2964 30.2746 25.6335 33.7074 25.6335C38.0634 25.6335 41.946 26.6515 45.3551 28.6875C48.7879 30.6998 51.4867 33.4934 53.4517 37.0682C55.4403 40.643 56.4347 44.7386 56.4347 49.3551C56.4347 54.3504 55.2509 58.7775 52.8835 62.6364C50.5398 66.4953 47.2491 69.5256 43.0114 71.7273C38.7974 73.9053 33.8613 74.9943 28.2031 74.9943ZM96.163 75.7756C89.8183 75.7756 84.3496 74.2723 79.7567 71.2656C75.1639 68.2353 71.6246 63.8911 69.1388 58.233C66.6531 52.5511 65.422 45.7211 65.4457 37.7429C65.4693 29.7647 66.7122 22.9938 69.1744 17.4304C71.6602 11.8433 75.1876 7.59375 79.7567 4.68182C84.3496 1.74621 89.8183 0.278406 96.163 0.278406C102.508 0.278406 107.976 1.74621 112.569 4.68182C117.186 7.59375 120.737 11.8433 123.223 17.4304C125.708 23.0175 126.94 29.7884 126.916 37.7429C126.916 45.7448 125.673 52.5866 123.187 58.2685C120.701 63.9503 117.162 68.2945 112.569 71.3011C108 74.2841 102.531 75.7756 96.163 75.7756ZM96.163 61.3935C99.9509 61.3935 103.017 59.464 105.36 55.6051C107.704 51.7225 108.864 45.7685 108.841 37.7429C108.841 32.4872 108.308 28.1548 107.243 24.7457C106.177 21.313 104.698 18.7562 102.804 17.0753C100.91 15.3944 98.6961 14.554 96.163 14.554C92.3988 14.554 89.3567 16.4598 87.0366 20.2713C84.7165 24.0592 83.5446 29.883 83.521 37.7429C83.4973 43.0696 84.0063 47.4848 85.0479 50.9886C86.1133 54.4924 87.6048 57.1084 89.5224 58.8366C91.44 60.5412 93.6535 61.3935 96.163 61.3935ZM167.061 75.7756C160.717 75.7756 155.248 74.2723 150.655 71.2656C146.062 68.2353 142.523 63.8911 140.037 58.233C137.551 52.5511 136.32 45.7211 136.344 37.7429C136.368 29.7647 137.611 22.9938 140.073 17.4304C142.559 11.8433 146.086 7.59375 150.655 4.68182C155.248 1.74621 160.717 0.278406 167.061 0.278406C173.406 0.278406 178.875 1.74621 183.468 4.68182C188.084 7.59375 191.635 11.8433 194.121 17.4304C196.607 23.0175 197.838 29.7884 197.814 37.7429C197.814 45.7448 196.571 52.5866 194.086 58.2685C191.6 63.9503 188.06 68.2945 183.468 71.3011C178.899 74.2841 173.43 75.7756 167.061 75.7756ZM167.061 61.3935C170.849 61.3935 173.915 59.464 176.259 55.6051C178.603 51.7225 179.763 45.7685 179.739 37.7429C179.739 32.4872 179.206 28.1548 178.141 24.7457C177.076 21.313 175.596 18.7562 173.702 17.0753C171.808 15.3944 169.595 14.554 167.061 14.554C163.297 14.554 160.255 16.4598 157.935 20.2713C155.615 24.0592 154.443 29.883 154.419 37.7429C154.396 43.0696 154.905 47.4848 155.946 50.9886C157.012 54.4924 158.503 57.1084 160.421 58.8366C162.338 60.5412 164.552 61.3935 167.061 61.3935Z" fill="#335582"/>
</g>
<defs>
<filter id="filter0_i_1_2" x="0.610794" y="0.278412" width="197.239" height="79.4972" filterUnits="userSpaceOnUse" color-interpolation-filters="sRGB">
<feFlood flood-opacity="0" result="BackgroundImageFix"/>
<feBlend mode="normal" in="SourceGraphic" in2="BackgroundImageFix" result="shape"/>
<feColorMatrix in="SourceAlpha" type="matrix" values="0 0 0 0 0 0 0 0 0 0 0 0 0 0 0 0 0 0 127 0" result="hardAlpha"/>
<feOffset dy="4"/>
<feGaussianBlur stdDeviation="2"/>
<feComposite in2="hardAlpha" operator="arithmetic" k2="-1" k3="1"/>
<feColorMatrix type="matrix" values="0 0 0 0 0 0 0 0 0 0 0 0 0 0 0 0 0 0 0.25 0"/>
<feBlend mode="normal" in2="shape" result="effect1_innerShadow_1_2"/>
</filter>
</defs>
</svg>
