<svg width="200" height="150" viewBox="0 0 200 150" fill="none" xmlns="http://www.w3.org/2000/svg">
<rect x="1" y="1" width="198" height="148" fill="white" stroke="black" stroke-width="2"/>
<path d="M43.4453 36.7578C43.4453 35.9896 43.6146 35.6055 43.9531 35.6055H50.75L66.2383 58.2617V38.6719C66.2383 38.4635 66.1536 38.3594 65.9844 38.3594H62.8008C62.4232 38.3594 62.1693 38.0078 62.0391 37.3047C62.013 37.1224 62 36.9401 62 36.7578C62 35.9896 62.1693 35.6055 62.5078 35.6055H72.9375C73.263 35.6055 73.4258 36.0612 73.4258 36.9727C73.4258 37.8971 73.1979 38.3594 72.7422 38.3594H69.2461V65.0391C69.2461 65.2734 68.7643 65.3906 67.8008 65.3906C66.8763 65.3906 66.3424 65.2734 66.1992 65.0391L50.6914 42.9883V62.2461H53.9727C54.3242 62.2461 54.5 62.6432 54.5 63.4375C54.5 64.0885 54.4023 64.5117 54.207 64.707C54.0117 64.9023 53.8359 65 53.6797 65H44.4414C44.1159 65 43.9531 64.6289 43.9531 63.8867C43.9531 63.2487 44.1354 62.7474 44.5 62.3828C44.6042 62.2786 44.806 62.2266 45.1055 62.2266H45.1836C45.2357 62.2396 45.2878 62.2461 45.3398 62.2461C45.6393 62.2461 45.9453 62.2266 46.2578 62.1875C46.6354 62.1615 46.9284 62.1159 47.1367 62.0508C47.5013 61.9336 47.6836 61.7188 47.6836 61.4062V38.6719C47.6836 38.4635 47.599 38.3594 47.4297 38.3594H44.2461C43.8685 38.3594 43.6146 38.0078 43.4844 37.3047C43.4583 37.1224 43.4453 36.9401 43.4453 36.7578ZM84.2852 65.3906C82.8919 65.3906 81.668 65.1302 80.6133 64.6094C79.5586 64.0885 78.6667 63.3594 77.9375 62.4219C76.4792 60.5339 75.75 58.0599 75.75 55C75.75 51.7969 76.7396 49.2969 78.7188 47.5C80.5156 45.8724 82.7812 45.0586 85.5156 45.0586H85.5742C88.1263 45.0586 90.1771 46.0286 91.7266 47.9688C93.2109 49.8177 93.9531 52.2135 93.9531 55.1562C93.9531 58.4375 93.0417 60.9896 91.2188 62.8125C89.5 64.5312 87.1888 65.3906 84.2852 65.3906ZM81.4531 49.4336C80.9583 49.9544 80.5482 50.6706 80.2227 51.582C79.9102 52.4805 79.7539 53.5872 79.7539 54.9023C79.7539 56.2305 79.8776 57.3568 80.125 58.2812C80.3854 59.1927 80.737 59.9479 81.1797 60.5469C82.0781 61.7708 83.3216 62.3828 84.9102 62.3828C86.5508 62.3828 87.8203 61.6667 88.7188 60.2344C89.5391 58.9323 89.9492 57.2266 89.9492 55.1172C89.9362 51.5885 88.901 49.375 86.8438 48.4766C86.2188 48.2031 85.5872 48.0664 84.9492 48.0664C84.2982 48.0664 83.6732 48.1641 83.0742 48.3594C82.4883 48.5547 81.9479 48.9128 81.4531 49.4336ZM55.0859 111.246C55.4245 111.246 55.5938 111.643 55.5938 112.438C55.5938 113.062 55.4961 113.479 55.3008 113.688C55.1055 113.896 54.9362 114 54.793 114H44.4023C44.1029 114 43.9531 113.629 43.9531 112.887C43.9531 112.249 44.1354 111.747 44.5 111.383C44.6042 111.279 44.806 111.227 45.1055 111.227H45.1836C45.2357 111.24 45.2878 111.246 45.3398 111.246C45.6393 111.246 45.9453 111.227 46.2578 111.188C46.6354 111.161 46.9284 111.116 47.1367 111.051C47.5013 110.934 47.6836 110.719 47.6836 110.406V87.6719C47.6836 87.4635 47.599 87.3594 47.4297 87.3594H44.2461C43.8685 87.3594 43.6146 87.0078 43.4844 86.3047C43.4583 86.1224 43.4453 85.9401 43.4453 85.7578C43.4453 84.9896 43.6146 84.6055 43.9531 84.6055H55.5156C55.8411 84.6055 56.0039 85.0612 56.0039 85.9727C56.0039 86.8971 55.776 87.3594 55.3203 87.3594H51.8047V111.246H55.0859ZM94.2461 111.246C94.5977 111.246 94.7734 111.702 94.7734 112.613C94.7734 113.538 94.5326 114 94.0508 114H85.0859C84.7474 114 84.5781 113.603 84.5781 112.809C84.5781 112.171 84.7344 111.695 85.0469 111.383C85.138 111.292 85.2357 111.246 85.3398 111.246H85.3789C86.7331 111.246 87.4102 110.966 87.4102 110.406V104.605C87.4102 102.079 87.2669 100.426 86.9805 99.6445C86.694 98.8503 86.3229 98.2904 85.8672 97.9648C85.4245 97.6263 84.819 97.457 84.0508 97.457C82.6055 97.457 80.8216 98.2969 78.6992 99.9766V111.246H81.7266C82.0781 111.246 82.2539 111.702 82.2539 112.613C82.2539 113.538 81.987 114 81.4531 114H72.5664C72.2279 114 72.0586 113.616 72.0586 112.848V112.77C72.0586 112.171 72.2214 111.708 72.5469 111.383C72.638 111.292 72.7292 111.246 72.8203 111.246H72.8594C74.2135 111.246 74.8906 110.966 74.8906 110.406V104.605C74.8906 102.079 74.7474 100.426 74.4609 99.6445C74.1745 98.8503 73.8034 98.2904 73.3477 97.9648C72.9049 97.6263 72.2995 97.457 71.5312 97.457C70.0859 97.457 68.3021 98.2969 66.1797 99.9766V111.246H69.4609C69.7995 111.246 69.9688 111.63 69.9688 112.398C69.9688 113.036 69.8646 113.466 69.6562 113.688C69.4609 113.896 69.2982 114 69.168 114H59.2461C58.8815 114 58.6992 113.629 58.6992 112.887C58.6992 112.21 58.7969 111.767 58.9922 111.559C59.1875 111.35 59.3568 111.246 59.5 111.246H59.6953C61.1927 111.246 62.0456 111.096 62.2539 110.797C62.332 110.693 62.3711 110.562 62.3711 110.406V97.457H58.9336C58.556 97.444 58.3021 97.112 58.1719 96.4609C58.1458 96.2786 58.1328 96.1094 58.1328 95.9531C58.1328 95.3411 58.3021 94.9701 58.6406 94.8398C58.9922 94.6966 59.4349 94.5729 59.9688 94.4688C60.5026 94.3646 61.0625 94.2865 61.6484 94.2344C62.8203 94.1042 63.6992 94.0391 64.2852 94.0391H64.3633C64.9362 94.0521 65.2812 94.1172 65.3984 94.2344C65.5286 94.3646 65.6198 94.5339 65.6719 94.7422C65.737 94.9635 65.7695 95.4258 65.7695 96.1289V96.5C67.7357 95.4062 69.526 94.6576 71.1406 94.2539C71.6615 94.1237 72.0977 94.0586 72.4492 94.0586C74.8581 94.0586 76.5898 94.9766 77.6445 96.8125C79.6628 95.6406 81.6224 94.8008 83.5234 94.293C84.0964 94.1367 84.793 94.0586 85.6133 94.0586C86.4336 94.0586 87.2474 94.2344 88.0547 94.5859C88.862 94.9245 89.5 95.4193 89.9688 96.0703C90.8021 97.2161 91.2188 99.0391 91.2188 101.539V111.246H94.2461ZM102.586 96.8125C102.742 97.151 102.82 97.5352 102.82 97.9648C102.82 98.3945 102.755 98.7721 102.625 99.0977C102.469 99.4232 102.273 99.7031 102.039 99.9375C101.544 100.432 100.913 100.686 100.145 100.699C98.9336 100.699 98.1068 100.165 97.6641 99.0977C97.5339 98.7721 97.4688 98.3685 97.4688 97.8867C97.4688 97.418 97.6055 96.9753 97.8789 96.5586C98.1523 96.1419 98.5104 95.7839 98.9531 95.4844C99.4089 95.1849 99.9167 94.944 100.477 94.7617C101.049 94.5794 101.629 94.4362 102.215 94.332C103.243 94.1497 104.37 94.0586 105.594 94.0586C106.805 94.0586 107.853 94.2539 108.738 94.6445C109.637 95.0352 110.346 95.5625 110.867 96.2266C111.766 97.3854 112.215 99.026 112.215 101.148V111.246H115.496C115.848 111.246 116.023 111.63 116.023 112.398C116.023 112.737 115.958 113.076 115.828 113.414C115.698 113.74 115.496 113.935 115.223 114C114.493 114.208 113.452 114.312 112.098 114.312C110.73 114.312 109.969 114.286 109.812 114.234C109.656 114.195 109.513 114.117 109.383 114C109.135 113.779 108.888 113.329 108.641 112.652C107.052 113.811 105.138 114.391 102.898 114.391C100.893 114.391 99.3177 113.857 98.1719 112.789C97.0911 111.799 96.5508 110.504 96.5508 108.902V108.844C96.5508 106.852 97.2865 105.296 98.7578 104.176C100.047 103.186 101.655 102.691 103.582 102.691H108.406C108.406 100.517 108.224 99.1172 107.859 98.4922C107.508 97.8542 107.078 97.418 106.57 97.1836C106.076 96.9362 105.411 96.8125 104.578 96.8125H102.586ZM103.602 111.383C105.242 111.383 106.844 110.732 108.406 109.43V105.621H104.148C103.107 105.621 102.339 105.797 101.844 106.148C100.945 106.773 100.496 107.496 100.496 108.316C100.496 109.853 101.134 110.816 102.41 111.207C102.788 111.324 103.185 111.383 103.602 111.383ZM131.766 96.5781C132.755 97.6979 133.25 98.8698 133.25 100.094C133.25 101.318 133.003 102.366 132.508 103.238C132.026 104.111 131.388 104.84 130.594 105.426C128.992 106.611 127.052 107.203 124.773 107.203C124.266 107.203 123.777 107.164 123.309 107.086C122.866 107.633 122.645 108.128 122.645 108.57C122.645 109.013 122.866 109.397 123.309 109.723C123.764 110.035 124.363 110.191 125.105 110.191H129.07C131.622 110.191 133.458 110.745 134.578 111.852C135.451 112.711 135.887 113.961 135.887 115.602C135.887 117.372 135.053 118.922 133.387 120.25C131.421 121.812 128.712 122.594 125.262 122.594C122.436 122.594 120.242 121.956 118.68 120.68C118.029 120.146 117.56 119.579 117.273 118.98C117 118.382 116.863 117.802 116.863 117.242C116.863 116.682 116.954 116.148 117.137 115.641C117.332 115.133 117.586 114.664 117.898 114.234C118.211 113.792 118.569 113.375 118.973 112.984L120.223 111.715C120.066 111.52 119.91 111.331 119.754 111.148C119.598 110.966 119.461 110.771 119.344 110.562C119.07 110.068 118.934 109.475 118.934 108.785C118.934 108.108 119.48 107.19 120.574 106.031C119.689 105.445 118.992 104.697 118.484 103.785C117.99 102.861 117.742 101.832 117.742 100.699C117.742 99.5664 117.99 98.5898 118.484 97.7695C118.992 96.9362 119.643 96.2526 120.438 95.7188C121.987 94.6771 123.823 94.1562 125.945 94.1562C126.714 94.1562 127.475 94.2539 128.23 94.4492H135.379C136.551 94.4492 137.273 94.8464 137.547 95.6406C137.625 95.875 137.664 96.1289 137.664 96.4023C137.664 96.6758 137.605 96.9362 137.488 97.1836C137.371 97.431 137.221 97.6328 137.039 97.7891C136.648 98.1276 136.219 98.2969 135.75 98.2969C135.724 98.3099 135.704 98.3164 135.691 98.3164C135.249 98.3164 134.917 98.2448 134.695 98.1016C134.487 97.9583 134.266 97.7891 134.031 97.5938C133.406 97.0599 132.651 96.7214 131.766 96.5781ZM120.672 116.676C120.672 118.616 122.241 119.586 125.379 119.586C127.137 119.586 128.654 119.215 129.93 118.473C131.362 117.652 132.078 116.63 132.078 115.406C132.078 114.378 131.375 113.681 129.969 113.316C129.474 113.186 128.868 113.121 128.152 113.121H122.84L122.176 113.844C121.173 114.938 120.672 115.882 120.672 116.676ZM121.863 100.543C121.863 101.715 122.176 102.62 122.801 103.258C123.426 103.883 124.142 104.195 124.949 104.195C125.757 104.195 126.401 104.085 126.883 103.863C127.378 103.642 127.794 103.336 128.133 102.945C128.797 102.177 129.129 101.227 129.129 100.094V100.035C129.129 99.1367 128.81 98.362 128.172 97.7109C127.521 97.0339 126.805 96.6953 126.023 96.6953C125.242 96.6953 124.611 96.7865 124.129 96.9688C123.647 97.151 123.237 97.4115 122.898 97.75C122.195 98.4531 121.844 99.3776 121.844 100.523C121.844 100.536 121.85 100.543 121.863 100.543ZM139.285 103.961C139.285 102.346 139.552 100.914 140.086 99.6641C140.607 98.4401 141.31 97.4115 142.195 96.5781C143.992 94.9115 146.212 94.0716 148.855 94.0586H148.914C151.336 94.0586 153.204 94.8203 154.52 96.3438C155.835 97.8542 156.492 100.035 156.492 102.887C156.492 103.499 156.212 104.026 155.652 104.469C155.105 104.898 154.415 105.113 153.582 105.113H143.289C143.523 108.16 144.585 110.113 146.473 110.973C147.072 111.246 147.703 111.383 148.367 111.383C149.031 111.383 149.624 111.311 150.145 111.168C150.665 111.012 151.167 110.823 151.648 110.602C152.13 110.367 152.599 110.107 153.055 109.82C154.005 109.221 154.565 108.922 154.734 108.922C154.891 108.935 155.06 109.013 155.242 109.156C155.398 109.312 155.555 109.495 155.711 109.703C156.049 110.198 156.225 110.615 156.238 110.953V110.992C156.238 111.305 156.167 111.513 156.023 111.617C153.641 113.466 150.932 114.391 147.898 114.391C145.177 114.391 143.055 113.44 141.531 111.539C140.034 109.69 139.285 107.164 139.285 103.961ZM152.488 102.184V102.105C152.488 99.5273 151.74 97.9388 150.242 97.3398C149.773 97.1576 149.253 97.0664 148.68 97.0664C148.107 97.0664 147.508 97.1706 146.883 97.3789C146.258 97.6003 145.685 97.9193 145.164 98.3359C144.005 99.2865 143.38 100.569 143.289 102.184H152.488Z" fill="black"/>
</svg>
